<svg xmlns="http://www.w3.org/2000/svg" xmlns:svg="http://www.w3.org/2000/svg" xmlns:xlink="http://www.w3.org/1999/xlink" id="svg2" width="400" height="200" version="1.0"><defs id="defs4"><linearGradient id="linearGradient3177"><stop style="stop-color:#fc0;stop-opacity:1" id="stop3179" offset="0"/><stop style="stop-color:#fc0;stop-opacity:0" id="stop3181" offset="1"/></linearGradient><linearGradient id="linearGradient3217"><stop style="stop-color:#524f4a;stop-opacity:.56862748" id="stop3219" offset="0"/><stop style="stop-color:#000;stop-opacity:.55696201" id="stop3221" offset="1"/></linearGradient><linearGradient id="linearGradient3209"><stop style="stop-color:#dc9fff;stop-opacity:1" id="stop3211" offset="0"/><stop style="stop-color:#fff971;stop-opacity:0" id="stop3213" offset="1"/></linearGradient><linearGradient id="linearGradient3201"><stop style="stop-color:#ffff45;stop-opacity:1" id="stop3203" offset="0"/><stop style="stop-color:#ffc73f;stop-opacity:0" id="stop3205" offset="1"/></linearGradient><radialGradient id="radialGradient3220" cx="200" cy="322.947" r="197.219" fx="200" fy="322.947" gradientTransform="matrix(1,0,0,0.5065758,0.70711,48.309311)" gradientUnits="userSpaceOnUse" xlink:href="#linearGradient3209"/></defs><metadata id="metadata7"/><g id="layer1"><path style="opacity:1;fill:#90f;fill-opacity:1;stroke:#707070;stroke-width:2.14898443000000006;stroke-linecap:round;stroke-linejoin:round;stroke-miterlimit:4;stroke-dasharray:none;stroke-dashoffset:0;stroke-opacity:.66396759999999999" id="rect2431" d="M 3.488357,-2 L 3.488357,192.8125 C 3.488357,195.58233 5.74575,197.81249 8.550857,197.8125 L 392.86336,197.8125 C 395.66847,197.8125 397.92584,195.58233 397.92586,192.8125 L 397.92586,-2 L 3.488357,-2 z"/><path id="path3212" d="M 3.48836,-2 L 3.48836,192.8125 C 3.48836,195.58233 5.74575,197.81249 8.55086,197.8125 L 392.86336,197.8125 C 395.66847,197.8125 397.92584,195.58233 397.92586,192.8125 L 397.92586,-2 L 3.48836,-2 z" style="opacity:.90000000000000002;fill:url(#radialGradient3220);fill-opacity:1;stroke:none;stroke-width:2.14898443000000006;stroke-linecap:round;stroke-linejoin:round;stroke-miterlimit:4;stroke-dasharray:none;stroke-dashoffset:0;stroke-opacity:.66396759999999999"/><path style="opacity:.9;fill:none;fill-opacity:1;stroke:#fffdfd;stroke-width:2.12749457;stroke-linecap:round;stroke-linejoin:round;stroke-miterlimit:4;stroke-dasharray:none;stroke-dashoffset:0;stroke-opacity:1" id="path3222" d="M 5.4605475,-2.4151511 L 5.4605475,190.44922 C 5.4605475,193.19135 7.6953636,195.39921 10.472422,195.39922 L 390.9418,195.39922 C 393.71886,195.39922 395.95365,193.19135 395.95367,190.44922 L 395.95367,-2.4151511 L 5.4605475,-2.4151511 z"/></g></svg>