<svg xmlns="http://www.w3.org/2000/svg" xmlns:svg="http://www.w3.org/2000/svg" xmlns:xlink="http://www.w3.org/1999/xlink" id="svg2" width="400" height="200" version="1.0"><defs id="defs4"><linearGradient id="linearGradient3177"><stop style="stop-color:#fc0;stop-opacity:1" id="stop3179" offset="0"/><stop style="stop-color:#fc0;stop-opacity:0" id="stop3181" offset="1"/></linearGradient><linearGradient id="linearGradient3217"><stop style="stop-color:#524f4a;stop-opacity:.56862748" id="stop3219" offset="0"/><stop style="stop-color:#000;stop-opacity:.55696201" id="stop3221" offset="1"/></linearGradient><linearGradient id="linearGradient3209"><stop style="stop-color:#dc9fff;stop-opacity:1" id="stop3211" offset="0"/><stop style="stop-color:#fff971;stop-opacity:0" id="stop3213" offset="1"/></linearGradient><linearGradient id="linearGradient3201"><stop style="stop-color:#ffff45;stop-opacity:1" id="stop3203" offset="0"/><stop style="stop-color:#ffc73f;stop-opacity:0" id="stop3205" offset="1"/></linearGradient><radialGradient id="radialGradient3220" cx="200" cy="322.947" r="197.219" fx="200" fy="322.947" gradientTransform="matrix(1,0,0,-0.5065758,0.70711,151.68456)" gradientUnits="userSpaceOnUse" xlink:href="#linearGradient3209"/></defs><metadata id="metadata7"/><g id="layer1"><path style="opacity:1;fill:#90f;fill-opacity:1;stroke:#707070;stroke-width:2.14898443;stroke-linecap:round;stroke-linejoin:round;stroke-miterlimit:4;stroke-dasharray:none;stroke-dashoffset:0;stroke-opacity:.6639676" id="rect2431" d="M 3.488357,201.99387 L 3.488357,7.1813802 C 3.488357,4.4115502 5.74575,2.1813902 8.550857,2.1813802 L 392.86336,2.1813802 C 395.66847,2.1813802 397.92584,4.4115502 397.92586,7.1813802 L 397.92586,201.99387 L 3.488357,201.99387 z"/><path id="path3212" d="M 3.48836,201.99387 L 3.48836,7.1813802 C 3.48836,4.4115502 5.74575,2.1813902 8.55086,2.1813802 L 392.86336,2.1813802 C 395.66847,2.1813802 397.92584,4.4115502 397.92586,7.1813802 L 397.92586,201.99387 L 3.48836,201.99387 z" style="opacity:.9;fill:url(#radialGradient3220);fill-opacity:1;stroke:none;stroke-width:2.14898443;stroke-linecap:round;stroke-linejoin:round;stroke-miterlimit:4;stroke-dasharray:none;stroke-dashoffset:0;stroke-opacity:.6639676"/><path style="opacity:.9;fill:none;fill-opacity:1;stroke:#fffdfd;stroke-width:2.12749457;stroke-linecap:round;stroke-linejoin:round;stroke-miterlimit:4;stroke-dasharray:none;stroke-dashoffset:0;stroke-opacity:1" id="path3222" d="M 5.4605475,202.40902 L 5.4605475,9.5446602 C 5.4605475,6.8025302 7.6953636,4.5946702 10.472422,4.5946602 L 390.9418,4.5946602 C 393.71886,4.5946602 395.95365,6.8025302 395.95367,9.5446602 L 395.95367,202.40902 L 5.4605475,202.40902 z"/></g></svg>