<svg xmlns="http://www.w3.org/2000/svg" xmlns:svg="http://www.w3.org/2000/svg" xmlns:xlink="http://www.w3.org/1999/xlink" id="svg2" width="200" height="200" version="1.0"><defs id="defs4"><linearGradient id="linearGradient3177"><stop style="stop-color:#fc0;stop-opacity:1" id="stop3179" offset="0"/><stop style="stop-color:#fc0;stop-opacity:0" id="stop3181" offset="1"/></linearGradient><linearGradient id="linearGradient3217"><stop style="stop-color:#524f4a;stop-opacity:.56862748" id="stop3219" offset="0"/><stop style="stop-color:#000;stop-opacity:.55696201" id="stop3221" offset="1"/></linearGradient><linearGradient id="linearGradient3209"><stop style="stop-color:#ffff71;stop-opacity:1" id="stop3211" offset="0"/><stop style="stop-color:#ffff71;stop-opacity:.01898734" id="stop3213" offset="1"/></linearGradient><linearGradient id="linearGradient3201"><stop style="stop-color:#ffff45;stop-opacity:1" id="stop3203" offset="0"/><stop style="stop-color:#ffc73f;stop-opacity:0" id="stop3205" offset="1"/></linearGradient><radialGradient id="radialGradient3235" cx="93.842" cy="91.708" r="94.676" fx="93.842" fy="91.708" gradientTransform="matrix(1.1172989,2.2226315e-2,-2.4268525e-2,1.2199593,-10.529262,-15.819418)" gradientUnits="userSpaceOnUse" xlink:href="#linearGradient3209"/><radialGradient id="radialGradient3183" cx="98.384" cy="174.471" r="94.672" fx="98.384" fy="174.471" gradientTransform="matrix(1.4900666,-2.830177e-8,5.2658909e-8,1.9327697,-25.268784,-142.97468)" gradientUnits="userSpaceOnUse" xlink:href="#linearGradient3177"/><filter id="filter3209"><feGaussianBlur id="feGaussianBlur3211" stdDeviation=".961"/></filter><filter id="filter3229"><feGaussianBlur id="feGaussianBlur3231" stdDeviation="1.874"/></filter></defs><metadata id="metadata7"/><g id="layer1"><path style="fill:none;fill-opacity:1;stroke:#000;stroke-width:1.94000006000000003;stroke-linecap:round;stroke-linejoin:round;stroke-miterlimit:4;stroke-dasharray:none;stroke-dashoffset:0;stroke-opacity:1;filter:url(#filter3229);opacity:.5" id="path3239" d="M 8.68236,6.5511677 C 8.665861,6.7136597 8.68236,6.8663995 8.68236,7.0333578 L 8.68236,188.96971 C 8.68236,191.64105 10.845493,193.79161 13.532436,193.79161 L 187.49859,193.79161 C 190.18553,193.79161 192.34867,191.64105 192.34867,188.96971 L 192.34867,7.0333578 C 192.34867,6.8663995 192.33485,6.7136597 192.31835,6.5511677 L 8.68236,6.5511677 z" transform="matrix(1.020176,0,0,1.0056919,-2.0279234,-0.6814127)"/><path style="fill:#ffffb0;fill-opacity:1;stroke:#ffffb0;stroke-width:0;stroke-linecap:round;stroke-linejoin:round;stroke-miterlimit:4;stroke-dasharray:none;stroke-dashoffset:0;stroke-opacity:1" id="rect2383" d="M 6.838049,2.0877801 C 6.821219,2.2545041 6.838049,2.4112218 6.838049,2.5825286 L 6.838049,189.25732 C 6.838049,191.99823 9.044627,194.20481 11.785534,194.20481 L 189.24563,194.20481 C 191.98654,194.20481 194.19312,191.99823 194.19312,189.25732 L 194.19312,2.5825286 C 194.19312,2.4112218 194.17904,2.2545041 194.1622,2.0877801 L 6.838049,2.0877801 z"/><path id="path3199" d="M 6.838049,2.0877801 C 6.821218,2.2545041 6.838049,2.4112218 6.838049,2.5825286 L 6.838049,189.25732 C 6.838049,191.99823 9.044627,194.20481 11.785534,194.20481 L 189.24563,194.20481 C 191.98654,194.20481 194.19312,191.99823 194.19312,189.25732 L 194.19312,2.5825286 C 194.19312,2.4112218 194.17904,2.2545041 194.1622,2.0877801 L 6.838049,2.0877801 z" style="fill:url(#radialGradient3235);fill-opacity:1;stroke:none;stroke-width:0;stroke-linecap:round;stroke-linejoin:round;stroke-miterlimit:4;stroke-dasharray:none;stroke-dashoffset:0;stroke-opacity:1"/><path style="fill:none;fill-opacity:1;stroke:url(#radialGradient3183);stroke-width:3;stroke-linecap:round;stroke-linejoin:round;stroke-miterlimit:4;stroke-dasharray:none;stroke-dashoffset:0;stroke-opacity:1;filter:url(#filter3209);opacity:.7" id="path2405" d="M 5.368246,1.7339512 C 5.351416,1.8997092 5.368246,2.0555192 5.368246,2.2258332 L 5.368246,187.81911 C 5.368246,190.54414 7.574858,192.73792 10.315809,192.73792 L 187.77869,192.73792 C 190.51963,192.73792 192.72625,190.54414 192.72625,187.81911 L 192.72625,2.2258332 C 192.72625,2.0555192 192.71215,1.8997092 192.69532,1.7339512 L 5.368246,1.7339512 z"/></g></svg>